  <!-- SVG Sprite -->
  <svg width="0" height="0">
      <symbol xmlns="http://www.w3.org/2000/svg" viewBox="0 0 357 357" id="close-button">
        <path d="M357 35.7L321.3 0 178.5 142.8 35.7 0 0 35.7l142.8 142.8L0 321.3 35.7 357l142.8-142.8L321.3 357l35.7-35.7-142.8-142.8z"></path>
      </symbol>
      <symbol xmlns="http://www.w3.org/2000/svg" viewBox="0 0 512 512" id="close">
        <path d="M505.943 6.058c-8.077-8.077-21.172-8.077-29.249 0L6.058 476.693c-8.077 8.077-8.077 21.172 0 29.249A20.612 20.612 0 0 0 20.683 512a20.614 20.614 0 0 0 14.625-6.059L505.943 35.306c8.076-8.076 8.076-21.171 0-29.248z"></path>
        <path d="M505.942 476.694L35.306 6.059c-8.076-8.077-21.172-8.077-29.248 0-8.077 8.076-8.077 21.171 0 29.248l470.636 470.636a20.616 20.616 0 0 0 14.625 6.058 20.615 20.615 0 0 0 14.624-6.057c8.075-8.078 8.075-21.173-.001-29.25z"></path>
      </symbol>
      <symbol viewBox="0 0 61 84" xmlns="http://www.w3.org/2000/svg" id="badge">
        <title>FF75D948-9949-4771-AE35-2B38F8AD10D4</title>
        <g fill="none" fill-rule="evenodd">
          <path d="M48.432 35.12L29 45.506 39.568 80.12c4.33-9.908 6.552-14.893 6.664-14.952.106-.057 4.362 1.464 12.768 4.564L48.432 35.119z" stroke="#FA6400" stroke-width="2" fill="#E55A28"></path>
          <path d="M12.568 36.12L32 46.506 21.432 81.12c-4.33-9.908-6.552-14.893-6.664-14.952C14.662 66.11 10.406 67.63 2 70.73l10.568-34.612z" stroke="#FA6400" stroke-width="2" fill="#E55A28"></path>
          <circle fill="#F7B500" cx="29.959" cy="29" r="29"></circle>
          <circle stroke="#E4AF1E" stroke-width="2" cx="29.959" cy="29" r="23"></circle>
          <path d="M29.998 37.54l-6.872 3.575a1 1 0 0 1-1.447-1.052l1.276-7.64a1 1 0 0 0-.286-.877l-5.522-5.43a1 1 0 0 1 .553-1.703l7.66-1.147a1 1 0 0 0 .746-.542l3.458-6.93a1 1 0 0 1 1.79 0l3.458 6.93a1 1 0 0 0 .747.542l7.66 1.147a1 1 0 0 1 .553 1.702l-5.523 5.43a1 1 0 0 0-.285.879l1.276 7.64a1 1 0 0 1-1.448 1.051l-6.871-3.574a1 1 0 0 0-.923 0z"
            stroke="#DDA509" fill="#FFEAB1"></path>
        </g>
      </symbol>

    </svg>
